<svg xmlns="http://www.w3.org/2000/svg" fill="none" viewBox="15 12 64 64"><g filter="url(#filter0_d_587_9471)"><g filter="url(#filter1_iiii_587_9471)"><rect x="15" y="12" width="64" height="64" rx="12" fill="#17212B"></rect><rect x="15" y="12" width="64" height="64" rx="12" fill="url(#paint0_radial_587_9471)" fill-opacity="0.6" style="mix-blend-mode:overlay"></rect></g><rect x="15.125" y="12.125" width="63.75" height="63.75" rx="11.875" stroke="#F5F7FA" stroke-opacity="0.15" stroke-width="0.25"></rect></g><g filter="url(#filter2_dddii_587_9471)"><path fill-rule="evenodd" clip-rule="evenodd" d="M41.1034 34.1717C41.1034 37.7901 38.1701 40.7234 34.5517 40.7234C30.9333 40.7234 28 37.7901 28 34.1717C28 30.5533 30.9333 27.62 34.5517 27.62C38.1701 27.62 41.1034 30.5533 41.1034 34.1717ZM33.8917 35.0982L32.3861 33.5926C32.1942 33.4007 31.883 33.4007 31.6911 33.5926L31.4595 33.8242C31.2676 34.0161 31.2676 34.3273 31.4595 34.5192L33.5442 36.6039C33.7361 36.7958 34.0473 36.7958 34.2392 36.6039L37.7137 33.1293C37.9056 32.9374 37.9056 32.6263 37.7137 32.4344L37.4821 32.2028C37.2902 32.0109 36.9791 32.0109 36.7872 32.2028L33.8917 35.0982ZM34.5517 60.3786C38.1701 60.3786 41.1034 57.4453 41.1034 53.8269C41.1034 50.2085 38.1701 47.2752 34.5517 47.2752C30.9333 47.2752 28 50.2085 28 53.8269C28 57.4453 30.9333 60.3786 34.5517 60.3786ZM31.7405 51.3463C31.5578 51.5289 31.5578 51.8251 31.7405 52.0078L33.5595 53.8268L31.7405 55.6459C31.5578 55.8285 31.5578 56.1247 31.7405 56.3074L32.0712 56.6381C32.2538 56.8207 32.55 56.8207 32.7327 56.6381L34.5517 54.819L36.3708 56.6381C36.5535 56.8207 36.8496 56.8207 37.0323 56.6381L37.363 56.3074C37.5457 56.1247 37.5457 55.8285 37.363 55.6459L35.544 53.8268L37.363 52.0078C37.5457 51.8251 37.5457 51.5289 37.363 51.3463L37.0323 51.0155C36.8496 50.8329 36.5535 50.8329 36.3708 51.0155L34.5517 52.8346L32.7327 51.0155C32.55 50.8329 32.2538 50.8329 32.0712 51.0155L31.7405 51.3463ZM46.3448 31.2235C46.3448 30.6807 46.7848 30.2407 47.3276 30.2407H65.0172C65.56 30.2407 66 30.6807 66 31.2235V33.189C66 33.7317 65.56 34.1717 65.0172 34.1717H47.3276C46.7848 34.1717 46.3448 33.7317 46.3448 33.189V31.2235ZM47.3276 49.8958C46.7848 49.8958 46.3448 50.3358 46.3448 50.8786V52.8441C46.3448 53.3868 46.7848 53.8268 47.3276 53.8268H65.0172C65.56 53.8268 66 53.3868 66 52.8441V50.8786C66 50.3358 65.56 49.8958 65.0172 49.8958H47.3276ZM46.3448 37.12C46.3448 36.5772 46.7848 36.1372 47.3276 36.1372H59.1207C59.6634 36.1372 60.1034 36.5772 60.1034 37.12C60.1034 37.6627 59.6634 38.1027 59.1207 38.1027H47.3276C46.7848 38.1027 46.3448 37.6627 46.3448 37.12ZM47.3276 55.7923C46.7848 55.7923 46.3448 56.2323 46.3448 56.7751C46.3448 57.3178 46.7848 57.7578 47.3276 57.7578H59.1207C59.6634 57.7578 60.1034 57.3178 60.1034 56.7751C60.1034 56.2323 59.6634 55.7923 59.1207 55.7923H47.3276Z" fill="url(#paint1_linear_587_9471)"></path></g><defs><filter id="filter0_d_587_9471" x="13" y="11" width="68" height="68" filterUnits="userSpaceOnUse" color-interpolation-filters="sRGB"><feFlood flood-opacity="0" result="BackgroundImageFix"></feFlood><feColorMatrix in="SourceAlpha" type="matrix" values="0 0 0 0 0 0 0 0 0 0 0 0 0 0 0 0 0 0 127 0" result="hardAlpha"></feColorMatrix><feOffset dy="1"></feOffset><feGaussianBlur stdDeviation="1"></feGaussianBlur><feComposite in2="hardAlpha" operator="out"></feComposite><feColorMatrix type="matrix" values="0 0 0 0 0.0196078 0 0 0 0 0.0313726 0 0 0 0 0.0627451 0 0 0 0.2 0"></feColorMatrix><feBlend mode="normal" in2="BackgroundImageFix" result="effect1_dropShadow_587_9471"></feBlend><feBlend mode="normal" in="SourceGraphic" in2="effect1_dropShadow_587_9471" result="shape"></feBlend></filter><filter id="filter1_iiii_587_9471" x="15" y="12" width="64" height="64" filterUnits="userSpaceOnUse" color-interpolation-filters="sRGB"><feFlood flood-opacity="0" result="BackgroundImageFix"></feFlood><feBlend mode="normal" in="SourceGraphic" in2="BackgroundImageFix" result="shape"></feBlend><feColorMatrix in="SourceAlpha" type="matrix" values="0 0 0 0 0 0 0 0 0 0 0 0 0 0 0 0 0 0 127 0" result="hardAlpha"></feColorMatrix><feOffset></feOffset><feGaussianBlur stdDeviation="12"></feGaussianBlur><feComposite in2="hardAlpha" operator="arithmetic" k2="-1" k3="1"></feComposite><feColorMatrix type="matrix" values="0 0 0 0 0.0196078 0 0 0 0 0.0313726 0 0 0 0 0.0627451 0 0 0 0.5 0"></feColorMatrix><feBlend mode="normal" in2="shape" result="effect1_innerShadow_587_9471"></feBlend><feColorMatrix in="SourceAlpha" type="matrix" values="0 0 0 0 0 0 0 0 0 0 0 0 0 0 0 0 0 0 127 0" result="hardAlpha"></feColorMatrix><feMorphology radius="2" operator="dilate" in="SourceAlpha" result="effect2_innerShadow_587_9471"></feMorphology><feOffset dy="3"></feOffset><feGaussianBlur stdDeviation="0.5"></feGaussianBlur><feComposite in2="hardAlpha" operator="arithmetic" k2="-1" k3="1"></feComposite><feColorMatrix type="matrix" values="0 0 0 0 1 0 0 0 0 1 0 0 0 0 1 0 0 0 0.2 0"></feColorMatrix><feBlend mode="normal" in2="effect1_innerShadow_587_9471" result="effect2_innerShadow_587_9471"></feBlend><feColorMatrix in="SourceAlpha" type="matrix" values="0 0 0 0 0 0 0 0 0 0 0 0 0 0 0 0 0 0 127 0" result="hardAlpha"></feColorMatrix><feMorphology radius="1" operator="dilate" in="SourceAlpha" result="effect3_innerShadow_587_9471"></feMorphology><feOffset dy="-2"></feOffset><feGaussianBlur stdDeviation="0.5"></feGaussianBlur><feComposite in2="hardAlpha" operator="arithmetic" k2="-1" k3="1"></feComposite><feColorMatrix type="matrix" values="0 0 0 0 0 0 0 0 0 0 0 0 0 0 0 0 0 0 0.4 0"></feColorMatrix><feBlend mode="normal" in2="effect2_innerShadow_587_9471" result="effect3_innerShadow_587_9471"></feBlend><feColorMatrix in="SourceAlpha" type="matrix" values="0 0 0 0 0 0 0 0 0 0 0 0 0 0 0 0 0 0 127 0" result="hardAlpha"></feColorMatrix><feOffset></feOffset><feGaussianBlur stdDeviation="2.5"></feGaussianBlur><feComposite in2="hardAlpha" operator="arithmetic" k2="-1" k3="1"></feComposite><feColorMatrix type="matrix" values="0 0 0 0 1 0 0 0 0 1 0 0 0 0 1 0 0 0 0.05 0"></feColorMatrix><feBlend mode="normal" in2="effect3_innerShadow_587_9471" result="effect4_innerShadow_587_9471"></feBlend></filter><filter id="filter2_dddii_587_9471" x="0.482826" y="0.102821" width="93.0343" height="87.7929" filterUnits="userSpaceOnUse" color-interpolation-filters="sRGB"><feFlood flood-opacity="0" result="BackgroundImageFix"></feFlood><feColorMatrix in="SourceAlpha" type="matrix" values="0 0 0 0 0 0 0 0 0 0 0 0 0 0 0 0 0 0 127 0" result="hardAlpha"></feColorMatrix><feOffset></feOffset><feGaussianBlur stdDeviation="13.7586"></feGaussianBlur><feComposite in2="hardAlpha" operator="out"></feComposite><feColorMatrix type="matrix" values="0 0 0 0 0 0 0 0 0 0.827451 0 0 0 0 0.584314 0 0 0 1 0"></feColorMatrix><feBlend mode="overlay" in2="BackgroundImageFix" result="effect1_dropShadow_587_9471"></feBlend><feColorMatrix in="SourceAlpha" type="matrix" values="0 0 0 0 0 0 0 0 0 0 0 0 0 0 0 0 0 0 127 0" result="hardAlpha"></feColorMatrix><feOffset></feOffset><feGaussianBlur stdDeviation="9.82756"></feGaussianBlur><feComposite in2="hardAlpha" operator="out"></feComposite><feColorMatrix type="matrix" values="0 0 0 0 0 0 0 0 0 0.827451 0 0 0 0 0.584314 0 0 0 0.4 0"></feColorMatrix><feBlend mode="normal" in2="effect1_dropShadow_587_9471" result="effect2_dropShadow_587_9471"></feBlend><feColorMatrix in="SourceAlpha" type="matrix" values="0 0 0 0 0 0 0 0 0 0 0 0 0 0 0 0 0 0 127 0" result="hardAlpha"></feColorMatrix><feOffset dy="0.982756"></feOffset><feGaussianBlur stdDeviation="0.982756"></feGaussianBlur><feComposite in2="hardAlpha" operator="out"></feComposite><feColorMatrix type="matrix" values="0 0 0 0 0 0 0 0 0 0 0 0 0 0 0 0 0 0 0.25 0"></feColorMatrix><feBlend mode="normal" in2="effect2_dropShadow_587_9471" result="effect3_dropShadow_587_9471"></feBlend><feBlend mode="normal" in="SourceGraphic" in2="effect3_dropShadow_587_9471" result="shape"></feBlend><feColorMatrix in="SourceAlpha" type="matrix" values="0 0 0 0 0 0 0 0 0 0 0 0 0 0 0 0 0 0 127 0" result="hardAlpha"></feColorMatrix><feOffset dx="-0.491378" dy="-0.491378"></feOffset><feGaussianBlur stdDeviation="0.245689"></feGaussianBlur><feComposite in2="hardAlpha" operator="arithmetic" k2="-1" k3="1"></feComposite><feColorMatrix type="matrix" values="0 0 0 0 0 0 0 0 0 0 0 0 0 0 0 0 0 0 0.25 0"></feColorMatrix><feBlend mode="normal" in2="shape" result="effect4_innerShadow_587_9471"></feBlend><feColorMatrix in="SourceAlpha" type="matrix" values="0 0 0 0 0 0 0 0 0 0 0 0 0 0 0 0 0 0 127 0" result="hardAlpha"></feColorMatrix><feOffset dx="0.491378" dy="0.491378"></feOffset><feGaussianBlur stdDeviation="0.245689"></feGaussianBlur><feComposite in2="hardAlpha" operator="arithmetic" k2="-1" k3="1"></feComposite><feColorMatrix type="matrix" values="0 0 0 0 1 0 0 0 0 1 0 0 0 0 1 0 0 0 0.25 0"></feColorMatrix><feBlend mode="normal" in2="effect4_innerShadow_587_9471" result="effect5_innerShadow_587_9471"></feBlend></filter><radialGradient id="paint0_radial_587_9471" cx="0" cy="0" r="1" gradientUnits="userSpaceOnUse" gradientTransform="translate(47 44) rotate(90) scale(44.5)"><stop stop-color="white"></stop><stop offset="0.0666667" stop-color="white" stop-opacity="0.991353"></stop><stop offset="0.133333" stop-color="white" stop-opacity="0.96449"></stop><stop offset="0.2" stop-color="white" stop-opacity="0.91834"></stop><stop offset="0.266667" stop-color="white" stop-opacity="0.852589"></stop><stop offset="0.333333" stop-color="white" stop-opacity="0.768225"></stop><stop offset="0.4" stop-color="white" stop-opacity="0.668116"></stop><stop offset="0.466667" stop-color="white" stop-opacity="0.557309"></stop><stop offset="0.533333" stop-color="white" stop-opacity="0.442691"></stop><stop offset="0.6" stop-color="white" stop-opacity="0.331884"></stop><stop offset="0.666667" stop-color="white" stop-opacity="0.231775"></stop><stop offset="0.733333" stop-color="white" stop-opacity="0.147411"></stop><stop offset="0.8" stop-color="white" stop-opacity="0.0816599"></stop><stop offset="0.866667" stop-color="white" stop-opacity="0.03551"></stop><stop offset="0.933333" stop-color="white" stop-opacity="0.01"></stop><stop offset="1" stop-color="white" stop-opacity="0"></stop></radialGradient><linearGradient id="paint1_linear_587_9471" x1="28" y1="27.62" x2="68.4443" y2="57.0155" gradientUnits="userSpaceOnUse"><stop stop-color="#00D395"></stop><stop offset="1" stop-color="#11A0FF"></stop></linearGradient></defs></svg>