<svg xmlns="http://www.w3.org/2000/svg" fill="none" viewBox="12 12 64 64"><g filter="url(#filter0_d_216_10601)"><g filter="url(#filter1_iiii_216_10601)"><rect x="12" y="12" width="64" height="64" rx="12" fill="#17212B"></rect><rect x="12" y="12" width="64" height="64" rx="12" fill="url(#paint0_radial_216_10601)" fill-opacity="0.6" style="mix-blend-mode:overlay"></rect></g><rect x="12.125" y="12.125" width="63.75" height="63.75" rx="11.875" stroke="#F5F7FA" stroke-opacity="0.15" stroke-width="0.25"></rect></g><g filter="url(#filter2_dddii_216_10601)"><path fill-rule="evenodd" clip-rule="evenodd" d="M32.7536 34.1679C32.3458 33.7601 31.676 33.7793 31.3237 34.2359C29.2397 36.9376 28 40.324 28 44C28 47.676 29.2397 51.0624 31.3237 53.7641C31.676 54.2207 32.3458 54.2399 32.7536 53.8321L37.7807 48.805C38.1325 48.4533 38.165 47.9 37.9182 47.4681C37.3339 46.4458 37 45.2619 37 44C37 42.7381 37.3339 41.5542 37.9182 40.5318C38.165 40.1 38.1325 39.5467 37.7807 39.195L32.7536 34.1679ZM40.5318 37.9182C40.1 38.165 39.5467 38.1325 39.1949 37.7808L34.1678 32.7537C33.76 32.3459 33.7792 31.676 34.2359 31.3238C36.9375 29.2397 40.324 28 44 28C47.676 28 51.0624 29.2397 53.7641 31.3237C54.2207 31.676 54.2399 32.3458 53.8321 32.7536L48.805 37.7807C48.4533 38.1325 47.9 38.165 47.4681 37.9182C46.4458 37.3339 45.2619 37 44 37C42.7381 37 41.5542 37.3339 40.5318 37.9182ZM50.2192 48.805C49.8675 48.4533 49.835 47.9 50.0818 47.4682C50.6661 46.4458 51 45.2619 51 44C51 42.7381 50.6661 41.5542 50.0818 40.5318C49.835 40.1 49.8675 39.5467 50.2192 39.195L55.2463 34.1678C55.6541 33.76 56.324 33.7792 56.6762 34.2359C58.7603 36.9375 60 40.324 60 44C60 47.676 58.7603 51.0625 56.6762 53.7641C56.324 54.2208 55.6541 54.24 55.2463 53.8322L50.2192 48.805ZM39.1949 50.2192C39.5467 49.8675 40.1 49.835 40.5318 50.0818C41.5542 50.6661 42.7381 51 44 51C45.2619 51 46.4458 50.6661 47.4681 50.0818C47.9 49.835 48.4533 49.8675 48.805 50.2193L53.8321 55.2464C54.2399 55.6542 54.2207 56.324 53.7641 56.6763C51.0624 58.7603 47.676 60 44 60C40.324 60 36.9375 58.7603 34.2359 56.6762C33.7792 56.324 33.76 55.6541 34.1678 55.2463L39.1949 50.2192Z" fill="url(#paint1_linear_216_10601)"></path></g><defs><filter id="filter0_d_216_10601" x="10" y="11" width="68" height="68" filterUnits="userSpaceOnUse" color-interpolation-filters="sRGB"><feFlood flood-opacity="0" result="BackgroundImageFix"></feFlood><feColorMatrix in="SourceAlpha" type="matrix" values="0 0 0 0 0 0 0 0 0 0 0 0 0 0 0 0 0 0 127 0" result="hardAlpha"></feColorMatrix><feOffset dy="1"></feOffset><feGaussianBlur stdDeviation="1"></feGaussianBlur><feComposite in2="hardAlpha" operator="out"></feComposite><feColorMatrix type="matrix" values="0 0 0 0 0.0196078 0 0 0 0 0.0313726 0 0 0 0 0.0627451 0 0 0 0.2 0"></feColorMatrix><feBlend mode="normal" in2="BackgroundImageFix" result="effect1_dropShadow_216_10601"></feBlend><feBlend mode="normal" in="SourceGraphic" in2="effect1_dropShadow_216_10601" result="shape"></feBlend></filter><filter id="filter1_iiii_216_10601" x="12" y="12" width="64" height="64" filterUnits="userSpaceOnUse" color-interpolation-filters="sRGB"><feFlood flood-opacity="0" result="BackgroundImageFix"></feFlood><feBlend mode="normal" in="SourceGraphic" in2="BackgroundImageFix" result="shape"></feBlend><feColorMatrix in="SourceAlpha" type="matrix" values="0 0 0 0 0 0 0 0 0 0 0 0 0 0 0 0 0 0 127 0" result="hardAlpha"></feColorMatrix><feOffset></feOffset><feGaussianBlur stdDeviation="12"></feGaussianBlur><feComposite in2="hardAlpha" operator="arithmetic" k2="-1" k3="1"></feComposite><feColorMatrix type="matrix" values="0 0 0 0 0.0196078 0 0 0 0 0.0313726 0 0 0 0 0.0627451 0 0 0 0.5 0"></feColorMatrix><feBlend mode="normal" in2="shape" result="effect1_innerShadow_216_10601"></feBlend><feColorMatrix in="SourceAlpha" type="matrix" values="0 0 0 0 0 0 0 0 0 0 0 0 0 0 0 0 0 0 127 0" result="hardAlpha"></feColorMatrix><feMorphology radius="2" operator="dilate" in="SourceAlpha" result="effect2_innerShadow_216_10601"></feMorphology><feOffset dy="3"></feOffset><feGaussianBlur stdDeviation="0.5"></feGaussianBlur><feComposite in2="hardAlpha" operator="arithmetic" k2="-1" k3="1"></feComposite><feColorMatrix type="matrix" values="0 0 0 0 1 0 0 0 0 1 0 0 0 0 1 0 0 0 0.2 0"></feColorMatrix><feBlend mode="normal" in2="effect1_innerShadow_216_10601" result="effect2_innerShadow_216_10601"></feBlend><feColorMatrix in="SourceAlpha" type="matrix" values="0 0 0 0 0 0 0 0 0 0 0 0 0 0 0 0 0 0 127 0" result="hardAlpha"></feColorMatrix><feMorphology radius="1" operator="dilate" in="SourceAlpha" result="effect3_innerShadow_216_10601"></feMorphology><feOffset dy="-2"></feOffset><feGaussianBlur stdDeviation="0.5"></feGaussianBlur><feComposite in2="hardAlpha" operator="arithmetic" k2="-1" k3="1"></feComposite><feColorMatrix type="matrix" values="0 0 0 0 0 0 0 0 0 0 0 0 0 0 0 0 0 0 0.4 0"></feColorMatrix><feBlend mode="normal" in2="effect2_innerShadow_216_10601" result="effect3_innerShadow_216_10601"></feBlend><feColorMatrix in="SourceAlpha" type="matrix" values="0 0 0 0 0 0 0 0 0 0 0 0 0 0 0 0 0 0 127 0" result="hardAlpha"></feColorMatrix><feOffset></feOffset><feGaussianBlur stdDeviation="2.5"></feGaussianBlur><feComposite in2="hardAlpha" operator="arithmetic" k2="-1" k3="1"></feComposite><feColorMatrix type="matrix" values="0 0 0 0 1 0 0 0 0 1 0 0 0 0 1 0 0 0 0.05 0"></feColorMatrix><feBlend mode="normal" in2="effect3_innerShadow_216_10601" result="effect4_innerShadow_216_10601"></feBlend></filter><filter id="filter2_dddii_216_10601" x="0" y="0" width="88" height="88" filterUnits="userSpaceOnUse" color-interpolation-filters="sRGB"><feFlood flood-opacity="0" result="BackgroundImageFix"></feFlood><feColorMatrix in="SourceAlpha" type="matrix" values="0 0 0 0 0 0 0 0 0 0 0 0 0 0 0 0 0 0 127 0" result="hardAlpha"></feColorMatrix><feOffset></feOffset><feGaussianBlur stdDeviation="14"></feGaussianBlur><feComposite in2="hardAlpha" operator="out"></feComposite><feColorMatrix type="matrix" values="0 0 0 0 0 0 0 0 0 0.827451 0 0 0 0 0.584314 0 0 0 1 0"></feColorMatrix><feBlend mode="overlay" in2="BackgroundImageFix" result="effect1_dropShadow_216_10601"></feBlend><feColorMatrix in="SourceAlpha" type="matrix" values="0 0 0 0 0 0 0 0 0 0 0 0 0 0 0 0 0 0 127 0" result="hardAlpha"></feColorMatrix><feOffset></feOffset><feGaussianBlur stdDeviation="10"></feGaussianBlur><feComposite in2="hardAlpha" operator="out"></feComposite><feColorMatrix type="matrix" values="0 0 0 0 0 0 0 0 0 0.827451 0 0 0 0 0.584314 0 0 0 0.4 0"></feColorMatrix><feBlend mode="normal" in2="effect1_dropShadow_216_10601" result="effect2_dropShadow_216_10601"></feBlend><feColorMatrix in="SourceAlpha" type="matrix" values="0 0 0 0 0 0 0 0 0 0 0 0 0 0 0 0 0 0 127 0" result="hardAlpha"></feColorMatrix><feOffset dy="1"></feOffset><feGaussianBlur stdDeviation="1"></feGaussianBlur><feComposite in2="hardAlpha" operator="out"></feComposite><feColorMatrix type="matrix" values="0 0 0 0 0 0 0 0 0 0 0 0 0 0 0 0 0 0 0.15 0"></feColorMatrix><feBlend mode="normal" in2="effect2_dropShadow_216_10601" result="effect3_dropShadow_216_10601"></feBlend><feBlend mode="normal" in="SourceGraphic" in2="effect3_dropShadow_216_10601" result="shape"></feBlend><feColorMatrix in="SourceAlpha" type="matrix" values="0 0 0 0 0 0 0 0 0 0 0 0 0 0 0 0 0 0 127 0" result="hardAlpha"></feColorMatrix><feOffset dx="-0.5" dy="-0.5"></feOffset><feGaussianBlur stdDeviation="0.25"></feGaussianBlur><feComposite in2="hardAlpha" operator="arithmetic" k2="-1" k3="1"></feComposite><feColorMatrix type="matrix" values="0 0 0 0 0 0 0 0 0 0 0 0 0 0 0 0 0 0 0.15 0"></feColorMatrix><feBlend mode="normal" in2="shape" result="effect4_innerShadow_216_10601"></feBlend><feColorMatrix in="SourceAlpha" type="matrix" values="0 0 0 0 0 0 0 0 0 0 0 0 0 0 0 0 0 0 127 0" result="hardAlpha"></feColorMatrix><feOffset dx="0.5" dy="0.5"></feOffset><feGaussianBlur stdDeviation="0.25"></feGaussianBlur><feComposite in2="hardAlpha" operator="arithmetic" k2="-1" k3="1"></feComposite><feColorMatrix type="matrix" values="0 0 0 0 1 0 0 0 0 1 0 0 0 0 1 0 0 0 0.25 0"></feColorMatrix><feBlend mode="normal" in2="effect4_innerShadow_216_10601" result="effect5_innerShadow_216_10601"></feBlend></filter><radialGradient id="paint0_radial_216_10601" cx="0" cy="0" r="1" gradientUnits="userSpaceOnUse" gradientTransform="translate(44 44) rotate(90) scale(44.5)"><stop stop-color="white"></stop><stop offset="0.0666667" stop-color="white" stop-opacity="0.991353"></stop><stop offset="0.133333" stop-color="white" stop-opacity="0.96449"></stop><stop offset="0.2" stop-color="white" stop-opacity="0.91834"></stop><stop offset="0.266667" stop-color="white" stop-opacity="0.852589"></stop><stop offset="0.333333" stop-color="white" stop-opacity="0.768225"></stop><stop offset="0.4" stop-color="white" stop-opacity="0.668116"></stop><stop offset="0.466667" stop-color="white" stop-opacity="0.557309"></stop><stop offset="0.533333" stop-color="white" stop-opacity="0.442691"></stop><stop offset="0.6" stop-color="white" stop-opacity="0.331884"></stop><stop offset="0.666667" stop-color="white" stop-opacity="0.231775"></stop><stop offset="0.733333" stop-color="white" stop-opacity="0.147411"></stop><stop offset="0.8" stop-color="white" stop-opacity="0.0816599"></stop><stop offset="0.866667" stop-color="white" stop-opacity="0.03551"></stop><stop offset="0.933333" stop-color="white" stop-opacity="0.01"></stop><stop offset="1" stop-color="white" stop-opacity="0"></stop></radialGradient><linearGradient id="paint1_linear_216_10601" x1="20.6686" y1="60.9975" x2="48.6414" y2="34.9552" gradientUnits="userSpaceOnUse"><stop stop-color="#F0F576"></stop><stop offset="1" stop-color="#00D395"></stop></linearGradient></defs></svg>