<svg width="40" height="40" viewBox="0 0 40 40" fill="none" xmlns="http://www.w3.org/2000/svg">
<rect width="40" height="40" rx="20" fill="white"/>
<path d="M19.9998 32.2041C24.9705 32.2041 28.9999 28.1755 28.9999 23.206C28.9999 21.3474 28.4363 19.6204 27.4706 18.1865L20.0005 22.4401L19.9998 32.2041Z" fill="#91C6FB"/>
<path d="M12.5415 18.1682C12.5401 18.1702 12.5388 18.1721 12.5375 18.1741L12.5398 18.1754L12.5415 18.1682Z" fill="#00A3FF"/>
<path d="M12.5345 18.1784C11.5655 19.6139 10.9998 21.3439 10.9998 23.206C10.9998 28.1755 15.0291 32.2041 19.9997 32.2041L20.0004 22.4401L12.5345 18.1784Z" fill="#00A3FF"/>
<path d="M19.9995 32.2041L12.5349 18.1798L19.9995 22.4379V32.2041Z" fill="#91C6FB"/>
<path d="M19.9997 13.2895L13.398 16.885L19.9997 20.48V13.2895Z" fill="#91C6FB"/>
<path d="M19.9999 13.2895L13.3982 16.885L19.9999 7.00004L19.9999 13.2895Z" fill="#00A3FF"/>
<path d="M20.0001 32.2041L27.4644 18.1922L20.0001 22.4379V32.2041Z" fill="#DAECFE"/>
<path d="M19.9997 13.2898L26.6118 16.8861L19.9997 20.4802V13.2898Z" fill="#DAECFE"/>
<path d="M19.9997 13.2896L26.605 16.886L19.9997 7.01342V13.2896Z" fill="#91C6FB"/>
<rect x="0.125" y="0.125" width="39.75" height="39.75" rx="19.875" stroke="#0F171F" stroke-opacity="0.15" stroke-width="0.25"/>
</svg>
