<svg width="40" height="40" viewBox="0 0 40 40" fill="none" xmlns="http://www.w3.org/2000/svg">
<rect width="40" height="40" rx="20" fill="#033852"/>
<path fill-rule="evenodd" clip-rule="evenodd" d="M25.6569 14.3431C28.781 17.4673 28.781 22.5327 25.6569 25.6569C22.5327 28.781 17.4673 28.781 14.3431 25.6569C11.219 22.5327 11.219 17.4673 14.3431 14.3431C17.4673 11.219 22.5327 11.219 25.6569 14.3431ZM23.2988 17.4616C23.3076 17.223 23.2369 17.0285 23.0867 16.8783C22.9364 16.728 22.742 16.6573 22.5033 16.6662L18.4975 16.6728C18.2721 16.6772 18.0865 16.7523 17.9406 16.8982C17.7948 17.044 17.7197 17.2164 17.7153 17.4152C17.7153 17.6097 17.7904 17.782 17.9406 17.9323C18.0113 18.003 18.0909 18.0604 18.1793 18.1046C18.2721 18.1444 18.3649 18.1621 18.4577 18.1577L18.9062 18.1908L21.0517 18.0206L19.6927 19.1984L16.9707 21.9205C16.8116 22.0795 16.7342 22.2585 16.7386 22.4574C16.7431 22.6562 16.8226 22.833 16.9773 22.9877C17.132 23.1424 17.3087 23.2219 17.5076 23.2263C17.7065 23.2307 17.8854 23.1534 18.0445 22.9943L20.7666 20.2722L21.9384 18.9201L21.7742 21.0588L21.8073 21.5073C21.8029 21.6001 21.8206 21.6929 21.8604 21.7857C21.9045 21.8741 21.962 21.9536 22.0327 22.0243C22.183 22.1746 22.3553 22.2497 22.5498 22.2497C22.7486 22.2453 22.921 22.1702 23.0668 22.0243C23.2126 21.8785 23.2878 21.6929 23.2922 21.4675L23.2988 17.4616Z" fill="#00AAFF"/>
</svg>
