<svg width="24" height="24" viewBox="0 0 24 24" fill="none" xmlns="http://www.w3.org/2000/svg">
<g clip-path="url(#clip0_1_2)">
<path d="M24 12C24 5.37258 18.6274 0 12 0C5.37258 0 0 5.37258 0 12C0 18.6274 5.37258 24 12 24C18.6274 24 24 18.6274 24 12Z" fill="#073E2E"/>
<path d="M9.222 16H10.674V8.102H9.541C9.365 9.213 8.485 9.642 7.407 9.675V10.643H9.222V16ZM13.0059 16H14.5349C14.6559 13.096 16.0639 10.698 17.5599 9.301V8.168H11.9169V9.411H14.4689C15.3269 9.411 16.1409 9.356 16.1409 9.356V9.378C14.6229 10.665 13.1489 13.206 13.0059 16Z" fill="#00C289"/>
</g>
<defs>
<clipPath id="clip0_1_2">
<rect width="24" height="24" fill="white"/>
</clipPath>
</defs>
</svg>
