<svg width="40" height="40" viewBox="0 0 40 40" fill="none" xmlns="http://www.w3.org/2000/svg">
<rect width="40" height="40" rx="20" fill="black"/>
<path fill-rule="evenodd" clip-rule="evenodd" d="M29.645 13.2144C30.2632 13.6029 30.6579 14.2701 30.687 14.999V24.9723C30.6597 25.6267 30.3555 26.2308 29.8385 26.6315L20.8304 31.8482C20.5733 31.9489 20.3015 32 20.023 32C19.7191 32 19.382 31.9338 19.1476 31.82C19.1179 31.8055 19.0337 31.7593 18.9103 31.69C18.8305 31.6451 18.7334 31.5902 18.6244 31.5282L15.3272 29.6299L15.3267 29.6307L12.5703 28.0437L20.4561 15.0307L23.9417 15.018L16.0767 28.3586L19.7457 30.4689C19.9112 30.5362 20.1066 30.5396 20.2736 30.4792L23.3742 28.6824L20.0639 23.487L22.0848 20.0576L26.4323 26.9101L26.433 26.9097L27.2882 26.4141L22.7022 18.9971L24.4647 16.0064L29.2026 23.3857V15.0537C29.1913 14.8147 29.0645 14.5962 28.8622 14.4673L20.3091 9.54752C20.1091 9.44916 19.8554 9.45034 19.6556 9.55062C19.6286 9.5642 11.1317 14.4828 11.0923 14.5108C10.9349 14.6238 10.8302 14.7908 10.7965 14.9782C10.7915 15.0064 10.7878 15.0352 10.786 15.0643L10.799 23.0272L15.2238 16.1692C15.781 15.2598 16.9949 14.9668 18.1216 14.9827L19.4441 15.0176L11.6516 27.5145L9.30995 26.1652V25.3152L9.31031 25.3146V14.9946C9.34502 14.3194 9.68142 13.7048 10.2333 13.3092C10.338 13.2341 10.4493 13.1681 10.565 13.1128C10.565 13.1128 18.9193 8.26744 18.9917 8.23097C19.6044 7.92276 20.3683 7.92321 20.9798 8.23112L29.645 13.2144Z" fill="white"/>
<rect x="0.125" y="0.125" width="39.75" height="39.75" rx="19.875" stroke="#F5F7FA" stroke-opacity="0.15" stroke-width="0.25"/>
</svg>
