<svg width="40" height="40" viewBox="0 0 40 40" fill="none" xmlns="http://www.w3.org/2000/svg">
<rect width="40" height="40" rx="20" fill="black"/>
<path fill-rule="evenodd" clip-rule="evenodd" d="M8 20C8 13.3729 13.3729 8 20 8C26.6271 8 32 13.3729 32 20C32 26.6271 26.6271 32 20 32C13.3729 32 8 26.6271 8 20ZM19.3799 14.1526L19.1073 14.134C18.0096 14.0592 16.955 13.8476 15.9639 13.5186L15.6962 13.4297L15.8112 13.1722C15.9548 12.8504 16.1076 12.5439 16.2685 12.2544C17.0983 10.7605 18.0728 9.8225 19.0295 9.43839L19.3799 9.29769V14.1526ZM20.6201 9.29769L20.9705 9.43839C21.9272 9.8225 22.9017 10.7605 23.7315 12.2544C23.8924 12.5439 24.0452 12.8504 24.1888 13.1722L24.3038 13.4297L24.0361 13.5186C23.045 13.8476 21.9904 14.0592 20.8927 14.134L20.6201 14.1526V9.29769ZM16.4218 9.80386L15.86 10.5837C15.6186 10.9188 15.3928 11.2769 15.1844 11.6522C14.999 11.986 14.8238 12.3388 14.6601 12.7087L14.5515 12.9541L14.3118 12.8335C13.901 12.6267 13.5055 12.3983 13.1272 12.15L12.8396 11.9613L13.1036 11.7407C13.8407 11.1245 14.6618 10.6051 15.5471 10.2021L16.4218 9.80386ZM23.5782 9.80386L24.4529 10.2021C25.3383 10.6051 26.1593 11.1245 26.8964 11.7407L27.1604 11.9613L26.8728 12.15C26.4945 12.3983 26.099 12.6267 25.6882 12.8335L25.4485 12.9541L25.3399 12.7087C25.1762 12.3388 25.001 11.986 24.8156 11.6522C24.6072 11.2769 24.3814 10.9188 24.14 10.5837L23.5782 9.80386ZM11.9555 12.8506L12.1457 12.9831C12.7036 13.372 13.2971 13.7204 13.9207 14.0235L14.1184 14.1197L14.0527 14.3295C13.5978 15.7817 13.3073 17.4107 13.234 19.1355L13.2236 19.3799H9.25415L9.27695 19.1036C9.46749 16.7943 10.3874 14.6917 11.8053 13.027L11.9555 12.8506ZM28.0445 12.8506L28.1947 13.027C29.6126 14.6917 30.5325 16.7943 30.7231 19.1036L30.7459 19.3799H26.7764L26.766 19.1355C26.6927 17.4107 26.4022 15.7817 25.9473 14.3295L25.8816 14.1197L26.0793 14.0235C26.7029 13.7204 27.2964 13.3721 27.8543 12.9831L28.0445 12.8506ZM15.2679 14.5929L15.5175 14.6769C16.6589 15.0613 17.8752 15.303 19.1399 15.3788L19.3799 15.3931V19.3799H14.4639L14.4763 19.1128C14.5479 17.5725 14.8033 16.1284 15.1916 14.845L15.2679 14.5929ZM24.7321 14.5929L24.8084 14.845C25.1967 16.1285 25.4521 17.5725 25.5237 19.1128L25.5361 19.3799H20.6201V15.3931L20.8601 15.3788C22.1248 15.303 23.3411 15.0613 24.4825 14.6769L24.7321 14.5929ZM13.2236 20.6201L13.234 20.8645C13.3073 22.5893 13.5978 24.2183 14.0527 25.6705L14.1184 25.8803L13.9207 25.9765C13.2971 26.2796 12.7036 26.628 12.1457 27.0169L11.9555 27.1494L11.8053 26.973C10.3874 25.3083 9.46749 23.2057 9.27695 20.8964L9.25415 20.6201H13.2236ZM19.3799 24.6069L19.1399 24.6212C17.8752 24.697 16.6589 24.9387 15.5175 25.3231L15.2679 25.4071L15.1916 25.155C14.8033 23.8716 14.5479 22.4275 14.4763 20.8872L14.4639 20.6201H19.3799V24.6069ZM25.5361 20.6201L25.5237 20.8872C25.4521 22.4275 25.1967 23.8716 24.8084 25.155L24.7321 25.4071L24.4825 25.3231C23.3411 24.9387 22.1248 24.697 20.8601 24.6212L20.6201 24.6069V20.6201H25.5361ZM30.7459 20.6201L30.7231 20.8964C30.5325 23.2057 29.6126 25.3083 28.1947 26.973L28.0445 27.1494L27.8543 27.0169C27.2964 26.628 26.7029 26.2796 26.0793 25.9765L25.8816 25.8803L25.9473 25.6705C26.4022 24.2183 26.6927 22.5893 26.766 20.8645L26.7764 20.6201H30.7459ZM19.3799 30.7023L19.0295 30.5616C18.0728 30.1775 17.0983 29.2395 16.2685 27.7456C16.1076 27.4561 15.9548 27.1496 15.8112 26.8278L15.6962 26.5703L15.9639 26.4814C16.955 26.1524 18.0096 25.9408 19.1073 25.866L19.3799 25.8474V30.7023ZM20.6201 25.8474L20.8927 25.866C21.9904 25.9408 23.045 26.1524 24.0361 26.4814L24.3038 26.5703L24.1888 26.8278C24.0452 27.1496 23.8924 27.4561 23.7315 27.7456C22.9017 29.2395 21.9272 30.1775 20.9705 30.5616L20.6201 30.7023V25.8474ZM25.4485 27.0459L25.6882 27.1665C26.099 27.3733 26.4945 27.6017 26.8728 27.85L27.1604 28.0387L26.8964 28.2593C26.1593 28.8755 25.3383 29.3949 24.4529 29.7979L23.5782 30.1961L24.14 29.4163C24.3814 29.0812 24.6072 28.7231 24.8156 28.3478C25.001 28.014 25.1762 27.6612 25.3399 27.2913L25.4485 27.0459ZM14.5515 27.0459L14.6601 27.2913C14.8238 27.6612 14.999 28.014 15.1844 28.3478C15.3928 28.7231 15.6186 29.0812 15.86 29.4163L16.4218 30.1961L15.5471 29.7979C14.6618 29.3949 13.8407 28.8755 13.1036 28.2593L12.8396 28.0387L13.1272 27.85C13.5055 27.6017 13.901 27.3733 14.3118 27.1665L14.5515 27.0459Z" fill="#7A8A99"/>
<path d="M21.1308 10.082V13.603C21.988 13.5257 22.8156 13.3615 23.603 13.1208C23.501 12.9062 23.3949 12.6998 23.2852 12.5024C22.6011 11.2708 21.8427 10.4855 21.1308 10.082Z" fill="url(#paint0_linear_1343_6176)"/>
<path d="M18.8694 10.082C18.1575 10.4855 17.3991 11.2708 16.715 12.5024C16.6053 12.6998 16.4992 12.9062 16.3972 13.1208C17.1846 13.3615 18.0122 13.5257 18.8694 13.603V10.082Z" fill="url(#paint1_linear_1343_6176)"/>
<path d="M13.7047 11.9116C13.9005 12.0316 14.1008 12.1462 14.3053 12.2551C14.4423 11.9606 14.5867 11.6767 14.7381 11.4042C14.7949 11.3019 14.853 11.2007 14.9124 11.1007C14.4901 11.3427 14.0866 11.614 13.7047 11.9116Z" fill="url(#paint2_linear_1343_6176)"/>
<path d="M25.0877 11.1007C25.1471 11.2007 25.2053 11.3019 25.2621 11.4042C25.4134 11.6767 25.5579 11.9606 25.6949 12.2551C25.8994 12.1462 26.0997 12.0316 26.2955 11.9116C25.9136 11.614 25.5101 11.3427 25.0877 11.1007Z" fill="url(#paint3_linear_1343_6176)"/>
<path d="M12.0473 13.5345C10.8352 15.0235 10.0331 16.859 9.8125 18.8693H12.7357C12.8225 17.2733 13.0907 15.7582 13.5016 14.3856C12.9963 14.1301 12.5107 13.8456 12.0473 13.5345Z" fill="url(#paint4_linear_1343_6176)"/>
<path d="M26.4986 14.3856C26.9095 15.7582 27.1776 17.2733 27.2645 18.8693H30.1877C29.9671 16.859 29.165 15.0235 27.9529 13.5345C27.4895 13.8456 27.0038 14.1301 26.4986 14.3856Z" fill="url(#paint5_linear_1343_6176)"/>
<path d="M15.607 15.2433C15.2938 16.3468 15.0802 17.5696 15.0009 18.8693H18.8694V15.8722C17.7376 15.7858 16.6442 15.5711 15.607 15.2433Z" fill="url(#paint6_linear_1343_6176)"/>
<path d="M21.1308 15.8722V18.8693H24.9993C24.92 17.5696 24.7064 16.3468 24.3932 15.2433C23.356 15.5711 22.2626 15.7858 21.1308 15.8722Z" fill="url(#paint7_linear_1343_6176)"/>
<path d="M9.8125 21.1307C10.0331 23.1411 10.8352 24.9766 12.0473 26.4656C12.5107 26.1544 12.9963 25.8699 13.5016 25.6144C13.0907 24.2419 12.8225 22.7267 12.7357 21.1307H9.8125Z" fill="url(#paint8_linear_1343_6176)"/>
<path d="M15.0009 21.1307C15.0802 22.4305 15.2938 23.6532 15.607 24.7568C16.6442 24.4289 17.7376 24.2142 18.8694 24.1279V21.1307H15.0009Z" fill="url(#paint9_linear_1343_6176)"/>
<path d="M21.1308 21.1307V24.1279C22.2626 24.2142 23.356 24.4289 24.3932 24.7568C24.7064 23.6532 24.92 22.4305 24.9993 21.1307H21.1308Z" fill="url(#paint10_linear_1343_6176)"/>
<path d="M27.2645 21.1307C27.1776 22.7267 26.9095 24.2419 26.4986 25.6144C27.0039 25.8699 27.4895 26.1544 27.9529 26.4656C29.165 24.9766 29.9671 23.1411 30.1877 21.1307H27.2645Z" fill="url(#paint11_linear_1343_6176)"/>
<path d="M16.3972 26.8793C16.4992 27.0939 16.6053 27.3002 16.715 27.4977C17.3991 28.7293 18.1575 29.5146 18.8694 29.918V26.397C18.0122 26.4744 17.1846 26.6386 16.3972 26.8793Z" fill="url(#paint12_linear_1343_6176)"/>
<path d="M21.1308 26.397V29.918C21.8427 29.5146 22.6011 28.7293 23.2852 27.4977C23.3949 27.3002 23.501 27.0939 23.603 26.8793C22.8156 26.6386 21.988 26.4744 21.1308 26.397Z" fill="url(#paint13_linear_1343_6176)"/>
<path d="M13.7047 28.0884C14.0866 28.3861 14.4901 28.6573 14.9124 28.8993C14.853 28.7993 14.7949 28.6981 14.7381 28.5958C14.5867 28.3233 14.4423 28.0394 14.3053 27.745C14.1008 27.8539 13.9005 27.9684 13.7047 28.0884Z" fill="url(#paint14_linear_1343_6176)"/>
<path d="M25.6949 27.745C25.5579 28.0394 25.4134 28.3233 25.2621 28.5958C25.2053 28.6981 25.1471 28.7993 25.0877 28.8993C25.5101 28.6573 25.9136 28.3861 26.2955 28.0884C26.0997 27.9684 25.8994 27.8539 25.6949 27.745Z" fill="url(#paint15_linear_1343_6176)"/>
<rect x="0.25" y="0.25" width="39.5" height="39.5" rx="19.75" stroke="#F5F7FA" stroke-opacity="0.15" stroke-width="0.5"/>
<defs>
<linearGradient id="paint0_linear_1343_6176" x1="21.1887" y1="8.21721" x2="20.8751" y2="31.29" gradientUnits="userSpaceOnUse">
<stop stop-color="#516070"/>
<stop offset="1" stop-color="#516070" stop-opacity="0"/>
</linearGradient>
<linearGradient id="paint1_linear_1343_6176" x1="21.1887" y1="8.21721" x2="20.8751" y2="31.29" gradientUnits="userSpaceOnUse">
<stop stop-color="#516070"/>
<stop offset="1" stop-color="#516070" stop-opacity="0"/>
</linearGradient>
<linearGradient id="paint2_linear_1343_6176" x1="21.1887" y1="8.21721" x2="20.8751" y2="31.29" gradientUnits="userSpaceOnUse">
<stop stop-color="#516070"/>
<stop offset="1" stop-color="#516070" stop-opacity="0"/>
</linearGradient>
<linearGradient id="paint3_linear_1343_6176" x1="21.1887" y1="8.21721" x2="20.8751" y2="31.29" gradientUnits="userSpaceOnUse">
<stop stop-color="#516070"/>
<stop offset="1" stop-color="#516070" stop-opacity="0"/>
</linearGradient>
<linearGradient id="paint4_linear_1343_6176" x1="21.1887" y1="8.21721" x2="20.8751" y2="31.29" gradientUnits="userSpaceOnUse">
<stop stop-color="#516070"/>
<stop offset="1" stop-color="#516070" stop-opacity="0"/>
</linearGradient>
<linearGradient id="paint5_linear_1343_6176" x1="21.1887" y1="8.21721" x2="20.8751" y2="31.29" gradientUnits="userSpaceOnUse">
<stop stop-color="#516070"/>
<stop offset="1" stop-color="#516070" stop-opacity="0"/>
</linearGradient>
<linearGradient id="paint6_linear_1343_6176" x1="21.1887" y1="8.21721" x2="20.8751" y2="31.29" gradientUnits="userSpaceOnUse">
<stop stop-color="#516070"/>
<stop offset="1" stop-color="#516070" stop-opacity="0"/>
</linearGradient>
<linearGradient id="paint7_linear_1343_6176" x1="21.1887" y1="8.21721" x2="20.8751" y2="31.29" gradientUnits="userSpaceOnUse">
<stop stop-color="#516070"/>
<stop offset="1" stop-color="#516070" stop-opacity="0"/>
</linearGradient>
<linearGradient id="paint8_linear_1343_6176" x1="21.1887" y1="8.21721" x2="20.8751" y2="31.29" gradientUnits="userSpaceOnUse">
<stop stop-color="#516070"/>
<stop offset="1" stop-color="#516070" stop-opacity="0"/>
</linearGradient>
<linearGradient id="paint9_linear_1343_6176" x1="21.1887" y1="8.21721" x2="20.8751" y2="31.29" gradientUnits="userSpaceOnUse">
<stop stop-color="#516070"/>
<stop offset="1" stop-color="#516070" stop-opacity="0"/>
</linearGradient>
<linearGradient id="paint10_linear_1343_6176" x1="21.1887" y1="8.21721" x2="20.8751" y2="31.29" gradientUnits="userSpaceOnUse">
<stop stop-color="#516070"/>
<stop offset="1" stop-color="#516070" stop-opacity="0"/>
</linearGradient>
<linearGradient id="paint11_linear_1343_6176" x1="21.1887" y1="8.21721" x2="20.8751" y2="31.29" gradientUnits="userSpaceOnUse">
<stop stop-color="#516070"/>
<stop offset="1" stop-color="#516070" stop-opacity="0"/>
</linearGradient>
<linearGradient id="paint12_linear_1343_6176" x1="21.1887" y1="8.21721" x2="20.8751" y2="31.29" gradientUnits="userSpaceOnUse">
<stop stop-color="#516070"/>
<stop offset="1" stop-color="#516070" stop-opacity="0"/>
</linearGradient>
<linearGradient id="paint13_linear_1343_6176" x1="21.1887" y1="8.21721" x2="20.8751" y2="31.29" gradientUnits="userSpaceOnUse">
<stop stop-color="#516070"/>
<stop offset="1" stop-color="#516070" stop-opacity="0"/>
</linearGradient>
<linearGradient id="paint14_linear_1343_6176" x1="21.1887" y1="8.21721" x2="20.8751" y2="31.29" gradientUnits="userSpaceOnUse">
<stop stop-color="#516070"/>
<stop offset="1" stop-color="#516070" stop-opacity="0"/>
</linearGradient>
<linearGradient id="paint15_linear_1343_6176" x1="21.1887" y1="8.21721" x2="20.8751" y2="31.29" gradientUnits="userSpaceOnUse">
<stop stop-color="#516070"/>
<stop offset="1" stop-color="#516070" stop-opacity="0"/>
</linearGradient>
</defs>
</svg>
