<svg width="40" height="40" viewBox="0 0 40 40" fill="none" xmlns="http://www.w3.org/2000/svg">
<rect width="40" height="40" rx="20" fill="#073E2E"/>
<path fill-rule="evenodd" clip-rule="evenodd" d="M26.3777 14.923C26.7634 15.1471 27 15.5634 27 16.0116V25.0025C27 25.1866 26.8986 25.3567 26.7376 25.4448L25.3755 26.1852V19.9257C25.3755 19.4835 25.1449 19.0753 24.7691 18.8472L18.8756 15.2892V11.6292C18.8756 11.5172 18.9054 11.4091 18.9591 11.3131C19.1321 11.0129 19.5159 10.9108 19.8141 11.0849L26.3777 14.923ZM23.5045 19.4687C23.8883 19.6948 24.1249 20.1071 24.1249 20.5553V26.7107C24.1249 26.8927 24.0274 27.0608 23.8704 27.1489L22.4328 27.9633C22.4149 27.9733 22.395 27.9813 22.3751 27.9873V24.5695C22.3751 24.1272 22.1445 23.717 21.7667 23.4889L16.0005 20.017V16.1589C16.0005 16.0469 16.0303 15.9388 16.086 15.8427C16.2589 15.5426 16.6427 15.4405 16.9409 15.6166L23.5045 19.4687ZM13 23.7418C13 24.2661 13.2724 24.7543 13.7178 25.0285L19.9851 28.8886C20.339 29.1067 20.8003 28.9946 21.017 28.6384C21.0886 28.5204 21.1264 28.3823 21.1264 28.2442V25.2106C21.1264 24.7623 20.8898 24.3501 20.506 24.124L13.9405 20.2719C13.6422 20.0958 13.2585 20.1979 13.0855 20.498C13.0298 20.5941 13 20.7021 13 20.8142V23.7418Z" fill="#00D395"/>
</svg>
