<?xml version="1.0" encoding="UTF-8"?>
<!DOCTYPE svg PUBLIC "-//W3C//DTD SVG 1.1//EN" "http://www.w3.org/Graphics/SVG/1.1/DTD/svg11.dtd">
<svg xmlns="http://www.w3.org/2000/svg" version="1.1" width="800px" height="800px" style="shape-rendering:geometricPrecision; text-rendering:geometricPrecision; image-rendering:optimizeQuality; fill-rule:evenodd; clip-rule:evenodd" xmlns:xlink="http://www.w3.org/1999/xlink">
<g><path style="opacity:1" fill="#fefefe" d="M -0.5,-0.5 C 126.5,-0.5 253.5,-0.5 380.5,-0.5C 342.286,1.80918 304.952,9.14251 268.5,21.5C 265.654,21.5516 263.32,22.5516 261.5,24.5C 158.104,63.7219 82.6039,133.389 35,233.5C 29.4043,245.124 24.9043,257.124 21.5,269.5C 19.2149,272.335 17.8816,275.668 17.5,279.5C 7.70344,312.621 1.70344,346.288 -0.5,380.5C -0.5,253.5 -0.5,126.5 -0.5,-0.5 Z"/></g>
<g><path style="opacity:1" fill="#080808" d="M 380.5,-0.5 C 393.833,-0.5 407.167,-0.5 420.5,-0.5C 450.107,2.10171 479.441,7.10171 508.5,14.5C 510.515,15.9238 512.848,16.5905 515.5,16.5C 521.941,19.2042 528.608,21.5375 535.5,23.5C 643.091,64.25 720.591,137.25 768,242.5C 770.8,249.092 773.3,255.759 775.5,262.5C 775.345,265.716 776.345,268.383 778.5,270.5C 778.629,272.216 778.962,273.883 779.5,275.5C 780.267,279.149 781.6,282.482 783.5,285.5C 788.775,304.874 792.775,324.54 795.5,344.5C 795.884,349.01 796.551,353.343 797.5,357.5C 797.936,364 798.602,370.334 799.5,376.5C 799.5,391.167 799.5,405.833 799.5,420.5C 796.893,450.14 791.893,479.474 784.5,508.5C 783.076,510.515 782.41,512.848 782.5,515.5C 779.796,521.941 777.463,528.608 775.5,535.5C 732.096,648.904 654.096,728.237 541.5,773.5C 532.621,776.125 523.954,779.125 515.5,782.5C 501.645,786.464 487.645,789.797 473.5,792.5C 465.651,793.529 457.984,794.863 450.5,796.5C 441.622,796.895 432.956,797.895 424.5,799.5C 409.833,799.5 395.167,799.5 380.5,799.5C 346.292,797.297 312.625,791.297 279.5,781.5C 277.491,779.935 275.157,778.935 272.5,778.5C 184.554,748.721 115.054,695.054 64,617.5C 47.4993,591.5 33.9993,564.167 23.5,535.5C 21.5375,528.608 19.2042,521.941 16.5,515.5C 16.5905,512.848 15.9238,510.515 14.5,508.5C 7.53977,480.73 2.53977,452.73 -0.5,424.5C -0.5,409.833 -0.5,395.167 -0.5,380.5C 1.70344,346.288 7.70344,312.621 17.5,279.5C 19.3999,276.482 20.7333,273.149 21.5,269.5C 24.9043,257.124 29.4043,245.124 35,233.5C 82.6039,133.389 158.104,63.7219 261.5,24.5C 264.157,24.0652 266.491,23.0652 268.5,21.5C 304.952,9.14251 342.286,1.80918 380.5,-0.5 Z"/></g>
<g><path style="opacity:1" fill="#fefefe" d="M 420.5,-0.5 C 546.833,-0.5 673.167,-0.5 799.5,-0.5C 799.5,125.167 799.5,250.833 799.5,376.5C 798.602,370.334 797.936,364 797.5,357.5C 797.665,353.818 797.499,350.152 797,346.5C 796.722,345.584 796.222,344.918 795.5,344.5C 792.775,324.54 788.775,304.874 783.5,285.5C 783.118,281.668 781.785,278.335 779.5,275.5C 778.962,273.883 778.629,272.216 778.5,270.5C 777.871,267.603 776.871,264.936 775.5,262.5C 773.3,255.759 770.8,249.092 768,242.5C 720.591,137.25 643.091,64.25 535.5,23.5C 529.365,20.0085 522.698,17.6752 515.5,16.5C 513.485,15.0762 511.152,14.4095 508.5,14.5C 479.441,7.10171 450.107,2.10171 420.5,-0.5 Z"/></g>
<g><path style="opacity:1" fill="#474747" d="M 420.5,15.5 C 403.152,15.3258 385.819,15.6591 368.5,16.5C 370.631,15.6862 372.964,15.1862 375.5,15C 390.672,14.1723 405.672,14.3389 420.5,15.5 Z"/></g>
<g><path style="opacity:1" fill="#9e9e9e" d="M 508.5,14.5 C 511.152,14.4095 513.485,15.0762 515.5,16.5C 512.848,16.5905 510.515,15.9238 508.5,14.5 Z"/></g>
<g><path style="opacity:1" fill="#fefefe" d="M 420.5,15.5 C 430.305,17.0139 440.305,18.0139 450.5,18.5C 454.618,19.7089 458.951,20.3755 463.5,20.5C 476.187,22.5053 488.854,25.1719 501.5,28.5C 501.611,29.1174 501.944,29.6174 502.5,30C 505.824,30.9428 509.157,31.7761 512.5,32.5C 619.923,67.088 698.423,135.088 748,236.5C 753.733,249.296 758.9,262.296 763.5,275.5C 763.723,279.162 764.723,282.495 766.5,285.5C 767.057,290.165 768.39,294.498 770.5,298.5C 771.768,300.905 772.435,303.572 772.5,306.5C 772.41,309.152 773.076,311.485 774.5,313.5C 774.216,315.415 774.549,317.081 775.5,318.5C 775.125,323.911 776.125,328.911 778.5,333.5C 779.447,339.466 780.114,345.466 780.5,351.5C 780.45,357.389 781.116,363.056 782.5,368.5C 784.117,395.733 783.45,423.067 780.5,450.5C 779.291,454.618 778.624,458.951 778.5,463.5C 777.092,470.367 775.759,477.367 774.5,484.5C 772.96,486.838 772.294,489.505 772.5,492.5C 737.279,619.568 658.612,708.402 536.5,759C 517.747,765.643 498.747,771.143 479.5,775.5C 472.539,776.011 465.873,777.344 459.5,779.5C 419.476,784.707 379.476,784.707 339.5,779.5C 337.162,777.96 334.495,777.294 331.5,777.5C 328.813,777.664 326.146,777.497 323.5,777C 315.021,775.237 306.688,773.07 298.5,770.5C 292.501,767.724 286.167,765.724 279.5,764.5C 165.444,724.614 85.6105,648.614 40,536.5C 35.3164,523.285 31.1497,509.952 27.5,496.5C 27.4159,492.163 26.4159,488.163 24.5,484.5C 24.634,482.708 24.3007,481.042 23.5,479.5C 23.1916,475.64 22.5249,471.974 21.5,468.5C 21.5,467.833 21.5,467.167 21.5,466.5C 21.5905,463.848 20.9238,461.515 19.5,459.5C 19.5578,453.078 18.8912,446.744 17.5,440.5C 15.957,419.198 15.2903,397.865 15.5,376.5C 17.2402,355.406 20.2402,334.406 24.5,313.5C 25.9238,311.485 26.5905,309.152 26.5,306.5C 26.5651,303.572 27.2318,300.905 28.5,298.5C 31.2762,292.501 33.2762,286.167 34.5,279.5C 61.911,198.166 110.578,132.666 180.5,83C 205.939,65.4453 233.272,51.2786 262.5,40.5C 270.513,38.6079 278.179,35.9412 285.5,32.5C 290.165,31.9431 294.498,30.6098 298.5,28.5C 300.905,27.2318 303.572,26.5651 306.5,26.5C 310.163,26.0482 313.83,25.5482 317.5,25C 318.056,24.6174 318.389,24.1174 318.5,23.5C 320.292,23.634 321.958,23.3007 323.5,22.5C 328.414,22.6382 333.081,21.9715 337.5,20.5C 341.943,19.1985 346.609,18.5319 351.5,18.5C 357.389,18.5503 363.056,17.8836 368.5,16.5C 385.819,15.6591 403.152,15.3258 420.5,15.5 Z"/></g>
<g><path style="opacity:1" fill="#9b9b9b" d="M 515.5,16.5 C 522.698,17.6752 529.365,20.0085 535.5,23.5C 528.608,21.5375 521.941,19.2042 515.5,16.5 Z"/></g>
<g><path style="opacity:1" fill="#b7b7b7" d="M 368.5,16.5 C 363.056,17.8836 357.389,18.5503 351.5,18.5C 356.929,16.9879 362.596,16.3213 368.5,16.5 Z"/></g>
<g><path style="opacity:1" fill="#4d4d4d" d="M 450.5,18.5 C 453.85,18.335 457.183,18.5017 460.5,19C 461.737,19.2321 462.737,19.7321 463.5,20.5C 458.951,20.3755 454.618,19.7089 450.5,18.5 Z"/></g>
<g><path style="opacity:1" fill="#a1a1a1" d="M 337.5,20.5 C 333.081,21.9715 328.414,22.6382 323.5,22.5C 327.919,21.0285 332.586,20.3618 337.5,20.5 Z"/></g>
<g><path style="opacity:1" fill="#5b5b5b" d="M 268.5,21.5 C 266.491,23.0652 264.157,24.0652 261.5,24.5C 263.32,22.5516 265.654,21.5516 268.5,21.5 Z"/></g>
<g><path style="opacity:1" fill="#919191" d="M 318.5,23.5 C 318.389,24.1174 318.056,24.6174 317.5,25C 313.83,25.5482 310.163,26.0482 306.5,26.5C 310.2,24.7547 314.2,23.7547 318.5,23.5 Z"/></g>
<g><path style="opacity:1" fill="#999999" d="M 501.5,28.5 C 505.532,29.0822 509.199,30.4155 512.5,32.5C 509.157,31.7761 505.824,30.9428 502.5,30C 501.944,29.6174 501.611,29.1174 501.5,28.5 Z"/></g>
<g><path style="opacity:1" fill="#a5a5a5" d="M 298.5,28.5 C 294.498,30.6098 290.165,31.9431 285.5,32.5C 289.502,30.3902 293.835,29.0569 298.5,28.5 Z"/></g>
<g><path style="opacity:1" fill="#b6b6b6" d="M 285.5,32.5 C 278.179,35.9412 270.513,38.6079 262.5,40.5C 269.807,37.0236 277.474,34.3569 285.5,32.5 Z"/></g>
<g><path style="opacity:1" fill="#020202" d="M 225.5,216.5 C 221.9,218.43 218.9,221.097 216.5,224.5C 176.919,267.272 154.085,317.938 148,376.5C 143.323,460.245 171.156,530.745 231.5,588C 255.763,609.135 283.096,625.135 313.5,636C 317.719,638.552 320.886,642.052 323,646.5C 323.667,658.167 323.667,669.833 323,681.5C 320.065,688.378 314.898,690.878 307.5,689C 214.754,657.257 150.254,595.757 114,504.5C 79.8869,405.152 91.5535,311.819 149,224.5C 190.06,166.59 244.56,127.59 312.5,107.5C 317.071,107.56 320.571,109.56 323,113.5C 323.667,125.5 323.667,137.5 323,149.5C 321.601,155.9 317.767,160.066 311.5,162C 278.719,173.879 250.052,192.045 225.5,216.5 Z"/></g>
<g><path style="opacity:1" fill="#020202" d="M 477.5,684.5 C 477.244,671.47 477.577,658.47 478.5,645.5C 479.228,643.265 480.561,641.432 482.5,640C 580.927,601.386 637.427,529.553 652,424.5C 658.715,322.434 619.881,242.934 535.5,186C 519.801,176.984 503.467,169.317 486.5,163C 477.114,155.339 473.781,145.505 476.5,133.5C 476.667,127.833 476.833,122.167 477,116.5C 479.26,109.878 483.76,107.044 490.5,108C 595.008,143.506 663.175,214.006 695,319.5C 720.118,422.935 699.451,515.935 633,598.5C 594.581,642.562 547.414,673.396 491.5,691C 484.832,692.83 480.165,690.663 477.5,684.5 Z"/></g>
<g><path style="opacity:1" fill="#adadad" d="M 225.5,216.5 C 223.1,219.903 220.1,222.57 216.5,224.5C 218.9,221.097 221.9,218.43 225.5,216.5 Z"/></g>
<g><path style="opacity:1" fill="#5e5e5e" d="M 413.5,264.5 C 412.506,255.014 412.173,245.348 412.5,235.5C 404.833,235.5 397.167,235.5 389.5,235.5C 389.827,245.348 389.494,255.014 388.5,264.5C 388.5,254.5 388.5,244.5 388.5,234.5C 396.833,234.5 405.167,234.5 413.5,234.5C 413.5,244.5 413.5,254.5 413.5,264.5 Z"/></g>
<g><path style="opacity:1" fill="#020202" d="M 413.5,264.5 C 419.683,265.958 426.016,267.291 432.5,268.5C 434.936,269.871 437.603,270.871 440.5,271.5C 464.011,281.004 482.344,296.67 495.5,318.5C 479.167,329.833 462.833,341.167 446.5,352.5C 439.638,342.304 430.638,334.637 419.5,329.5C 417.68,327.552 415.346,326.552 412.5,326.5C 412.171,339.344 412.505,352.011 413.5,364.5C 414.568,365.434 415.901,365.768 417.5,365.5C 421.502,367.61 425.835,368.943 430.5,369.5C 433.518,371.4 436.851,372.733 440.5,373.5C 451.048,377.773 461.381,382.606 471.5,388C 501.018,408.183 509.851,435.35 498,469.5C 488.164,490.334 472.331,504.501 450.5,512C 438.321,516.501 425.821,519.334 413,520.5C 412.5,530.161 412.334,539.828 412.5,549.5C 404.5,549.5 396.5,549.5 388.5,549.5C 388.5,539.833 388.5,530.167 388.5,520.5C 386.901,520.768 385.568,520.434 384.5,519.5C 380.081,518.028 375.414,517.362 370.5,517.5C 368.901,517.768 367.568,517.434 366.5,516.5C 362.498,514.39 358.165,513.057 353.5,512.5C 328.468,502.97 308.635,486.97 294,464.5C 293.333,463.833 293.333,463.167 294,462.5C 311.305,450.695 328.472,438.695 345.5,426.5C 355.449,441.787 369.116,452.12 386.5,457.5C 387.209,458.404 388.209,458.737 389.5,458.5C 389.829,445.323 389.495,432.323 388.5,419.5C 382.501,416.724 376.167,414.724 369.5,413.5C 345.311,407.336 325.811,394.336 311,374.5C 293.992,336.027 302.492,304.527 336.5,280C 341.571,276.902 346.904,274.402 352.5,272.5C 355.542,272.267 358.208,271.267 360.5,269.5C 364.689,267.882 369.022,266.882 373.5,266.5C 377.684,266.149 381.684,265.482 385.5,264.5C 386.5,264.5 387.5,264.5 388.5,264.5C 389.494,255.014 389.827,245.348 389.5,235.5C 397.167,235.5 404.833,235.5 412.5,235.5C 412.173,245.348 412.506,255.014 413.5,264.5 Z"/></g>
<g><path style="opacity:1" fill="#747474" d="M 385.5,264.5 C 381.684,265.482 377.684,266.149 373.5,266.5C 377.183,264.75 381.183,264.083 385.5,264.5 Z"/></g>
<g><path style="opacity:1" fill="#606060" d="M 775.5,262.5 C 776.871,264.936 777.871,267.603 778.5,270.5C 776.345,268.383 775.345,265.716 775.5,262.5 Z"/></g>
<g><path style="opacity:1" fill="#9a9a9a" d="M 432.5,268.5 C 435.716,268.345 438.383,269.345 440.5,271.5C 437.603,270.871 434.936,269.871 432.5,268.5 Z"/></g>
<g><path style="opacity:1" fill="#8d8d8d" d="M 21.5,269.5 C 20.7333,273.149 19.3999,276.482 17.5,279.5C 17.8816,275.668 19.2149,272.335 21.5,269.5 Z"/></g>
<g><path style="opacity:1" fill="#717171" d="M 360.5,269.5 C 358.208,271.267 355.542,272.267 352.5,272.5C 354.792,270.733 357.458,269.733 360.5,269.5 Z"/></g>
<g><path style="opacity:1" fill="#989898" d="M 779.5,275.5 C 781.785,278.335 783.118,281.668 783.5,285.5C 781.6,282.482 780.267,279.149 779.5,275.5 Z"/></g>
<g><path style="opacity:1" fill="#969696" d="M 763.5,275.5 C 765.277,278.505 766.277,281.838 766.5,285.5C 764.723,282.495 763.723,279.162 763.5,275.5 Z"/></g>
<g><path style="opacity:1" fill="#a5a5a5" d="M 34.5,279.5 C 33.2762,286.167 31.2762,292.501 28.5,298.5C 29.7238,291.833 31.7238,285.499 34.5,279.5 Z"/></g>
<g><path style="opacity:1" fill="#9d9d9d" d="M 766.5,285.5 C 768.61,289.502 769.943,293.835 770.5,298.5C 768.39,294.498 767.057,290.165 766.5,285.5 Z"/></g>
<g><path style="opacity:1" fill="#727272" d="M 26.5,306.5 C 26.5905,309.152 25.9238,311.485 24.5,313.5C 24.4095,310.848 25.0762,308.515 26.5,306.5 Z"/></g>
<g><path style="opacity:1" fill="#747474" d="M 772.5,306.5 C 773.924,308.515 774.59,310.848 774.5,313.5C 773.076,311.485 772.41,309.152 772.5,306.5 Z"/></g>
<g><path style="opacity:1" fill="#9a9a9a" d="M 775.5,318.5 C 777.022,323.273 778.022,328.273 778.5,333.5C 776.125,328.911 775.125,323.911 775.5,318.5 Z"/></g>
<g><path style="opacity:1" fill="#f7f7f7" d="M 373.5,343.5 C 373.291,339.139 374.291,335.139 376.5,331.5C 379.287,327.931 382.954,325.598 387.5,324.5C 388.666,335.151 388.832,345.818 388,356.5C 381.701,353.696 376.868,349.363 373.5,343.5 Z"/></g>
<g><path style="opacity:1" fill="#868686" d="M 419.5,329.5 C 417.559,329.131 415.725,328.464 414,327.5C 413.5,339.829 413.333,352.162 413.5,364.5C 412.505,352.011 412.171,339.344 412.5,326.5C 415.346,326.552 417.68,327.552 419.5,329.5 Z"/></g>
<g><path style="opacity:1" fill="#808080" d="M 376.5,331.5 C 374.291,335.139 373.291,339.139 373.5,343.5C 372.371,341.372 372.204,339.039 373,336.5C 373.223,334.119 374.39,332.453 376.5,331.5 Z"/></g>
<g><path style="opacity:1" fill="#b0b0b0" d="M 795.5,344.5 C 796.222,344.918 796.722,345.584 797,346.5C 797.499,350.152 797.665,353.818 797.5,357.5C 796.551,353.343 795.884,349.01 795.5,344.5 Z"/></g>
<g><path style="opacity:1" fill="#999999" d="M 417.5,365.5 C 422.165,366.057 426.498,367.39 430.5,369.5C 425.835,368.943 421.502,367.61 417.5,365.5 Z"/></g>
<g><path style="opacity:1" fill="#a9a9a9" d="M 780.5,351.5 C 782.012,356.929 782.679,362.596 782.5,368.5C 781.116,363.056 780.45,357.389 780.5,351.5 Z"/></g>
<g><path style="opacity:1" fill="#9c9c9c" d="M 430.5,369.5 C 434.358,369.77 437.691,371.103 440.5,373.5C 436.851,372.733 433.518,371.4 430.5,369.5 Z"/></g>
<g><path style="opacity:1" fill="#565656" d="M 369.5,413.5 C 376.167,414.724 382.501,416.724 388.5,419.5C 381.833,418.276 375.499,416.276 369.5,413.5 Z"/></g>
<g><path style="opacity:1" fill="#515151" d="M 388.5,419.5 C 389.495,432.323 389.829,445.323 389.5,458.5C 388.209,458.737 387.209,458.404 386.5,457.5C 388.48,445.211 389.147,432.544 388.5,419.5 Z"/></g>
<g><path style="opacity:1" fill="#fefefe" d="M -0.5,424.5 C 2.53977,452.73 7.53977,480.73 14.5,508.5C 14.4095,511.152 15.0762,513.485 16.5,515.5C 17.6752,522.698 20.0085,529.365 23.5,535.5C 33.9993,564.167 47.4993,591.5 64,617.5C 115.054,695.054 184.554,748.721 272.5,778.5C 274.32,780.448 276.654,781.448 279.5,781.5C 312.625,791.297 346.292,797.297 380.5,799.5C 253.5,799.5 126.5,799.5 -0.5,799.5C -0.5,674.5 -0.5,549.5 -0.5,424.5 Z"/></g>
<g><path style="opacity:1" fill="#fefefe" d="M 799.5,420.5 C 799.5,546.833 799.5,673.167 799.5,799.5C 674.5,799.5 549.5,799.5 424.5,799.5C 432.956,797.895 441.622,796.895 450.5,796.5C 455.874,796.477 461.207,795.977 466.5,795C 469.191,794.844 471.524,794.011 473.5,792.5C 487.645,789.797 501.645,786.464 515.5,782.5C 524.662,780.669 533.329,777.669 541.5,773.5C 654.096,728.237 732.096,648.904 775.5,535.5C 778.991,529.365 781.325,522.698 782.5,515.5C 783.924,513.485 784.59,511.152 784.5,508.5C 791.893,479.474 796.893,450.14 799.5,420.5 Z"/></g>
<g><path style="opacity:1" fill="#8a8a8a" d="M 415.5,428.5 C 414.172,433.119 413.506,438.119 413.5,443.5C 413.506,448.881 414.172,453.881 415.5,458.5C 414.791,459.404 413.791,459.737 412.5,459.5C 412.5,448.833 412.5,438.167 412.5,427.5C 413.791,427.263 414.791,427.596 415.5,428.5 Z"/></g>
<g><path style="opacity:1" fill="#f8f8f8" d="M 415.5,428.5 C 420.358,429.596 424.691,431.762 428.5,435C 434.083,447.987 429.75,455.82 415.5,458.5C 414.172,453.881 413.506,448.881 413.5,443.5C 413.506,438.119 414.172,433.119 415.5,428.5 Z"/></g>
<g><path style="opacity:1" fill="#565656" d="M 15.5,376.5 C 15.2903,397.865 15.957,419.198 17.5,440.5C 16.036,434.057 15.2026,427.39 15,420.5C 14.1724,405.661 14.3391,390.994 15.5,376.5 Z"/></g>
<g><path style="opacity:1" fill="#4f4f4f" d="M 780.5,450.5 C 780.665,453.85 780.498,457.183 780,460.5C 779.768,461.737 779.268,462.737 778.5,463.5C 778.624,458.951 779.291,454.618 780.5,450.5 Z"/></g>
<g><path style="opacity:1" fill="#818181" d="M 19.5,459.5 C 20.9238,461.515 21.5905,463.848 21.5,466.5C 19.8372,464.562 19.1706,462.228 19.5,459.5 Z"/></g>
<g><path style="opacity:1" fill="#565656" d="M 21.5,468.5 C 22.5249,471.974 23.1916,475.64 23.5,479.5C 21.783,476.155 21.1164,472.489 21.5,468.5 Z"/></g>
<g><path style="opacity:1" fill="#7b7b7b" d="M 24.5,484.5 C 26.4159,488.163 27.4159,492.163 27.5,496.5C 25.8984,492.761 24.8984,488.761 24.5,484.5 Z"/></g>
<g><path style="opacity:1" fill="#767676" d="M 774.5,484.5 C 774.435,487.428 773.768,490.095 772.5,492.5C 772.294,489.505 772.96,486.838 774.5,484.5 Z"/></g>
<g><path style="opacity:1" fill="#9c9c9c" d="M 14.5,508.5 C 15.9238,510.515 16.5905,512.848 16.5,515.5C 15.0762,513.485 14.4095,511.152 14.5,508.5 Z"/></g>
<g><path style="opacity:1" fill="#9c9c9c" d="M 784.5,508.5 C 784.59,511.152 783.924,513.485 782.5,515.5C 782.41,512.848 783.076,510.515 784.5,508.5 Z"/></g>
<g><path style="opacity:1" fill="#585858" d="M 353.5,512.5 C 358.165,513.057 362.498,514.39 366.5,516.5C 361.835,515.943 357.502,514.61 353.5,512.5 Z"/></g>
<g><path style="opacity:1" fill="#464646" d="M 370.5,517.5 C 375.414,517.362 380.081,518.028 384.5,519.5C 379.586,519.638 374.919,518.972 370.5,517.5 Z"/></g>
<g><path style="opacity:1" fill="#9a9a9a" d="M 16.5,515.5 C 19.2042,521.941 21.5375,528.608 23.5,535.5C 20.0085,529.365 17.6752,522.698 16.5,515.5 Z"/></g>
<g><path style="opacity:1" fill="#999999" d="M 782.5,515.5 C 781.325,522.698 778.991,529.365 775.5,535.5C 777.463,528.608 779.796,521.941 782.5,515.5 Z"/></g>
<g><path style="opacity:1" fill="#464646" d="M 478.5,645.5 C 477.577,658.47 477.244,671.47 477.5,684.5C 476.34,672.34 476.173,660.007 477,647.5C 477.278,646.584 477.778,645.918 478.5,645.5 Z"/></g>
<g><path style="opacity:1" fill="#a5a5a5" d="M 279.5,764.5 C 286.167,765.724 292.501,767.724 298.5,770.5C 291.833,769.276 285.499,767.276 279.5,764.5 Z"/></g>
<g><path style="opacity:1" fill="#585858" d="M 479.5,775.5 C 473.131,777.677 466.465,779.01 459.5,779.5C 465.873,777.344 472.539,776.011 479.5,775.5 Z"/></g>
<g><path style="opacity:1" fill="#a2a2a2" d="M 541.5,773.5 C 533.329,777.669 524.662,780.669 515.5,782.5C 523.954,779.125 532.621,776.125 541.5,773.5 Z"/></g>
<g><path style="opacity:1" fill="#7f7f7f" d="M 331.5,777.5 C 334.495,777.294 337.162,777.96 339.5,779.5C 336.505,779.706 333.838,779.04 331.5,777.5 Z"/></g>
<g><path style="opacity:1" fill="#919191" d="M 272.5,778.5 C 275.157,778.935 277.491,779.935 279.5,781.5C 276.654,781.448 274.32,780.448 272.5,778.5 Z"/></g>
<g><path style="opacity:1" fill="#cccccc" d="M 473.5,792.5 C 471.524,794.011 469.191,794.844 466.5,795C 461.207,795.977 455.874,796.477 450.5,796.5C 457.984,794.863 465.651,793.529 473.5,792.5 Z"/></g>
</svg>
