<svg width="125" height="124" viewBox="0 0 125 124" fill="none" xmlns="http://www.w3.org/2000/svg">
<g clip-path="url(#clip0_950_4123)">
<path d="M62.5508 124C96.7923 124 124.551 96.2418 124.551 62C124.551 27.7583 96.7923 0 62.5508 0C28.3091 0 0.550781 27.7583 0.550781 62C0.550781 96.2418 28.3091 124 62.5508 124Z" fill="#0074F0"/>
<path d="M62.7133 116.518C51.1403 116.518 39.6133 112.748 30.2618 105.904L33.1364 101.989C41.6609 108.228 52.166 111.664 62.7133 111.664C67.6249 111.664 72.4977 110.935 77.1965 109.496L78.6233 114.137C73.463 115.717 68.1077 116.518 62.7133 116.518ZM84.2591 112.068L82.3356 107.611C82.6192 107.491 82.8998 107.367 83.1799 107.239C97.2873 100.863 107.448 88.5418 111.057 73.4394L115.784 74.5663C111.827 91.1385 100.673 104.657 85.1818 111.661C84.8729 111.799 84.5641 111.937 84.2591 112.068ZM25.6162 102.096C20.2041 97.1327 15.9099 91.2059 12.8578 84.4781C9.62825 77.3613 7.99219 69.8155 7.99219 62.05C7.99219 60.1334 8.09511 58.1921 8.30095 56.2825L13.1346 56.7963C12.9501 58.5358 12.8542 60.3035 12.8542 62.05C12.8542 69.1211 14.3448 75.9938 17.2869 82.4767C20.0692 88.6054 23.9766 94.0044 28.9061 98.5211L25.6162 102.096ZM116.856 68.6642L112.033 68.0617C112.289 66.0211 112.42 63.9488 112.42 61.8942C112.42 54.8231 110.929 47.9504 107.987 41.4676C105.336 35.6292 101.656 30.4428 97.0424 26.05L100.396 22.5393C105.464 27.3607 109.506 33.0573 112.416 39.4657C115.646 46.5829 117.282 54.1287 117.282 61.8942C117.282 64.1472 117.137 66.4253 116.856 68.6642ZM14.0112 51.4046L9.26272 50.3665C11.0478 42.2364 14.721 34.5027 19.8918 28.002C25.3146 21.1824 32.1072 15.8969 40.0888 12.2869C40.703 12.0071 41.3272 11.7414 41.9449 11.4899L43.7867 15.9783C43.2225 16.2086 42.6548 16.453 42.0941 16.7081C34.8257 19.9957 28.6364 24.8101 23.6998 31.0203C18.9904 36.9435 15.6402 43.9898 14.0112 51.4046ZM92.8721 22.5038C84.2056 15.911 73.4382 12.2799 62.5572 12.2799C57.9576 12.2799 53.3796 12.921 48.9575 14.1858L47.6198 9.52015C52.4783 8.13143 57.5034 7.42645 62.5572 7.42645C74.4957 7.42645 86.3067 11.4119 95.8179 18.6424L92.8721 22.5038Z" fill="white"/>
<path opacity="0.2" d="M101.298 100.498C122.556 79.0926 122.438 44.5102 101.032 23.2527C79.6271 1.9951 45.0447 2.11327 23.7871 23.5186L101.298 100.512V100.498Z" fill="white"/>
<path d="M65.6545 86.3803C64.6791 86.4985 63.6895 86.5721 62.6998 86.5721C49.1977 86.5721 38.2218 75.5962 38.2218 62.0942C38.2218 51.2957 45.2534 42.1073 54.9738 38.8721L62.1383 27.2461C43.1853 27.5415 27.8516 43.0675 27.8516 62.0942C27.8516 79.7917 41.1172 94.4461 58.2238 96.6619L65.6692 86.3951L65.6545 86.3803Z" fill="white"/>
<path d="M38.2062 62.0791C38.2062 51.2806 45.2377 42.0922 54.9582 38.857L62.1227 27.231C43.1697 27.5264 27.8359 43.0524 27.8359 62.0791H38.2062Z" fill="url(#paint0_linear_950_4123)"/>
<path d="M66.9532 27.4977L60.6602 37.7055C61.3398 37.6464 62.0191 37.6169 62.6988 37.6169C76.2008 37.6169 87.1768 48.5929 87.1768 62.0949C87.1768 72.3912 80.7803 81.2251 71.7543 84.8296L62.9646 96.9432C82.0505 96.7952 97.5471 81.225 97.5471 62.0949C97.5471 44.3087 84.1632 29.6102 66.9384 27.4977H66.9532Z" fill="white"/>
<path d="M87.1809 62.0795C87.1809 72.3757 80.7845 81.21 71.7584 84.8145L62.9688 96.9277C82.0547 96.7801 97.5512 81.21 97.5512 62.0795H87.1809Z" fill="url(#paint1_linear_950_4123)"/>
<path d="M45.9482 67.8338L62.5522 77.4066L79.1713 67.8338L62.5522 90.6575L45.9482 67.8338ZM45.0469 63.0331L62.5522 34.7142L80.0575 63.0331L62.5522 73.1224L45.0469 63.0331Z" fill="white"/>
<path opacity="0.1" d="M62.5971 34.3149L45.0918 63.3574L62.5971 73.6982V55.3954V34.3149Z" fill="#0074F0"/>
<path opacity="0.1" d="M62.5986 77.0067L62.377 77.2725V90.7006L62.5986 91.3357L80.1039 66.6659L62.5986 77.0067Z" fill="#0074F0"/>
<path opacity="0.1" d="M62.5977 73.6967L80.103 63.3562L62.5977 55.3939V73.6967Z" fill="#0074F0"/>
<path opacity="0.1" d="M45.0918 63.3562L62.5971 73.6967V55.3939L45.0918 63.3562Z" fill="#0074F0"/>
</g>
<defs>
<linearGradient id="paint0_linear_950_4123" x1="84.6802" y1="10.0358" x2="34.2915" y2="52.9794" gradientUnits="userSpaceOnUse">
<stop stop-color="#0074F0" stop-opacity="0.5"/>
<stop offset="1" stop-color="white"/>
</linearGradient>
<linearGradient id="paint1_linear_950_4123" x1="39.9237" y1="105.747" x2="78.2436" y2="80.7372" gradientUnits="userSpaceOnUse">
<stop stop-color="#0074F0" stop-opacity="0.5"/>
<stop offset="1" stop-color="white"/>
</linearGradient>
<clipPath id="clip0_950_4123">
<rect width="125" height="124" fill="white"/>
</clipPath>
</defs>
</svg>
